<svg width="220" height="36" viewBox="0 0 220 36" fill="none" xmlns="http://www.w3.org/2000/svg">
<rect x="61" y="12" width="29" height="14" fill="#F5F5F5"/>
<g clip-path="url(#clip0_1_130)">
<path d="M83 14.902C82.4843 15.1299 81.9313 15.2847 81.3503 15.3539C81.943 14.9984 82.3988 14.4353 82.6127 13.7657C82.0589 14.0947 81.4437 14.3334 80.7895 14.4618C80.2653 13.9041 79.5179 13.5557 78.6927 13.5557C77.1068 13.5557 75.8203 14.8406 75.8203 16.4272C75.8203 16.652 75.8452 16.8713 75.895 17.0821C73.5072 16.9616 71.3909 15.8182 69.9745 14.0814C69.7272 14.5053 69.5857 14.9992 69.5857 15.5242C69.5857 16.5213 70.0928 17.4002 70.8635 17.9151C70.393 17.9003 69.9497 17.7712 69.5623 17.5566C69.5623 17.5682 69.5623 17.5799 69.5623 17.5923C69.5623 18.9838 70.5524 20.1458 71.8661 20.4087C71.625 20.474 71.3714 20.509 71.1093 20.509C70.925 20.509 70.7445 20.4927 70.5695 20.4584C70.9343 21.6002 71.996 22.4301 73.2521 22.4534C72.2698 23.2234 71.0315 23.6823 69.686 23.6823C69.4534 23.6823 69.2255 23.6683 69.0008 23.6411C70.2717 24.457 71.7813 24.9314 73.4038 24.9314C78.6864 24.9314 81.5759 20.5549 81.5759 16.7601C81.5759 16.6349 81.5728 16.5104 81.5665 16.3876C82.1273 15.9847 82.615 15.4783 83 14.902Z" fill="black"/>
</g>
<rect x="96" y="12" width="29" height="14" fill="#F5F5F5"/>
<g clip-path="url(#clip1_1_130)">
<path d="M107.171 13.4964C107.171 14.3232 106.56 14.9927 105.556 14.9927C104.61 14.9935 104 14.324 104 13.4964C104 12.6498 104.63 12 105.595 12C106.56 12 107.151 12.6498 107.171 13.4964ZM104.079 25.804V16.1745H107.072V25.8032H104.079V25.804Z" fill="black"/>
<path d="M108.863 19.2471C108.863 18.0456 108.824 17.0417 108.785 16.1753H111.384L111.522 17.5144H111.581C111.974 16.8836 112.939 15.9587 114.554 15.9587C116.523 15.9579 118 17.2772 118 20.1134V25.804H115.006V20.4676C115.006 19.2273 114.574 18.3807 113.49 18.3807C112.663 18.3807 112.171 18.9514 111.955 19.5032C111.875 19.7 111.856 19.9759 111.856 20.251V25.804H108.863V19.2471Z" fill="black"/>
</g>
<rect x="131" y="12" width="29" height="14" fill="#F5F5F5"/>
<path d="M145.631 22.2562L143.408 20.1801C143.232 20.0162 142.948 20.0162 142.773 20.1801L139 23.6949V24.1734C139 24.6197 139.391 24.9829 139.869 24.9829H152.028C152.506 24.9829 152.897 24.6197 152.897 24.1734V23.6949L149.124 20.1784C148.948 20.0162 148.663 20.0162 148.49 20.1784L146.266 22.2545C146.091 22.4193 145.806 22.4193 145.631 22.2562ZM150.357 19.0296L152.58 21.1057C152.755 21.2696 152.897 21.207 152.897 20.9674V16.5005C152.897 16.2601 152.755 16.1983 152.58 16.3622L150.357 18.4383C150.181 18.6014 150.181 18.8657 150.357 19.0296ZM139.869 12.8235C139.391 12.8235 139 13.1883 139 13.6338V13.7796L145.597 19.9594C145.772 20.1233 146.055 20.1233 146.23 19.9594L152.897 13.7063V13.6338C152.897 13.1883 152.506 12.8235 152.028 12.8235H139.869ZM139 16.5005V20.9674C139 21.207 139.142 21.2696 139.317 21.1057L141.54 19.0296C141.716 18.8657 141.716 18.6014 141.54 18.4375L139.317 16.3622C139.142 16.1983 139 16.2601 139 16.5005Z" fill="black"/>
<defs>
<clipPath id="clip0_1_130">
<rect width="14" height="14" fill="white" transform="translate(69 12)"/>
</clipPath>
<clipPath id="clip1_1_130">
<rect width="14" height="14" fill="white" transform="translate(104 12)"/>
</clipPath>
</defs>
</svg>
